<?xml version="1.0" encoding="UTF-8" standalone="no"?>
<!-- Created with Inkscape (http://www.inkscape.org/) -->

<svg
   version="1.1"
   id="svg6313"
   width="300"
   height="138"
   viewBox="0 0 300 138"
   sodipodi:docname="curved_arrow.svg"
   inkscape:version="1.2.2 (732a01da63, 2022-12-09)"
   xmlns:inkscape="http://www.inkscape.org/namespaces/inkscape"
   xmlns:sodipodi="http://sodipodi.sourceforge.net/DTD/sodipodi-0.dtd"
   xmlns="http://www.w3.org/2000/svg"
   xmlns:svg="http://www.w3.org/2000/svg">
  <defs
     id="defs6317">
    <clipPath
       clipPathUnits="userSpaceOnUse"
       id="clipPath6568">
      <path
         id="path6570"
         style="fill:#ff0000;fill-opacity:1;fill-rule:nonzero;stroke:none"
         d="m 0,0 v 1048.9238 c 45.998883,-35.9211 92.714163,-70.77858 140.57812,-103.52732 96.92881,-66.31909 200.80613,-121.8651 301.20899,-182.79687 373.70056,-199.3763 776.21169,-335.3638 1190.25979,-422.18359 467.5227,-98.03273 943.827,-136.30223 1418.7558,-176.13672 489.1413,-27.10891 979.2247,-37.9479 1469.1817,-36.38477 163.3189,0.52105 326.6255,2.42101 489.8789,5.55469 327.8399,6.29291 667.8411,19.40073 995.7656,30.85547 482.602,21.17007 965.6019,32.16094 1448.2949,50.64648 421.5943,16.14568 842.8401,39.21076 1264,63.88867 331.4794,25.2498 665.4364,42.88169 994.3672,94.51563 4.5291,-11.76306 9.0586,-23.526 13.5879,-35.28906 C 9775.1145,210.19466 9831.4684,98.33041 9892.4688,0 Z m 11335.193,0 c 66.307,241.45103 51.802,554.80545 -91.644,924.74805 -15.823,40.80697 -31.646,81.61505 -47.469,122.42185 -17.101,41.8254 -35.177,83.2219 -52.74,124.8438 41.698,66.2544 82.595,137.4597 125.699,222.1543 53.952,106.0106 99.576,217.2481 130.697,332.0547 105.222,388.1688 91.271,541.1535 109.467,935.2285 -9.76,167.1165 -12.641,334.7789 -29.277,501.3515 -31.127,311.6749 -95.248,653.704 -160.252,960.6875 -48.249,227.8549 -120.681,525.3106 -185.447,752.334 -4.45,15.5951 -9.736,30.9416 -14.368,46.4824 62.8,70.3976 118.641,147.4312 164.793,229.1661 109.34,193.6387 122.68,410.6664 127.78,624.6953 -2.079,297.7794 -7.448,595.6969 -19.84,893.2168 -22.151,91.729 -35.369,186.0884 -66.453,275.1875 -21.743,62.3232 -55.608,120.1482 -90.922,175.914 -109.103,172.2879 -267.99,312.349 -445.078,411.586 -67.296,37.7107 -139.758,65.3546 -209.637,98.0312 -52.683,16.3541 -105.05,33.8329 -157.814,49.8965 H 11520 V 0 Z M 0,3566.9688 v 82.9804 c 25.061005,-0.1671 49.37257,-1.113 75.251953,-0.418 33.579807,0.9024 67.074467,0.1615 100.582027,-0.3242 C 116.26484,3623.9956 58.211933,3595.2984 0,3566.9688 Z m 5487.0547,42.871 c -48.9682,0.9271 -97.9408,1.7079 -146.916,1.9414 -67.5809,0.2624 -135.1615,0.3144 -202.7422,0.3614 -56.9627,-1.3895 -99.3996,3.2688 -160.9883,6.4746 -98.8461,6.0413 -197.9712,4.3276 -296.8555,8.7402 -101.7557,3.351 -202.9908,14.2383 -304.3808,22.8496 -58.876,5.6932 -117.8169,9.0449 -176.8047,11.4414 -55.8561,33.8001 -112.201,66.7966 -167.6953,101.1719 -144.5313,88.7833 -285.1332,183.6355 -427.3106,276.0664 -3.1107,20.5646 -5.9554,41.6358 -9.8144,60.6504 -7.8523,38.6904 -18.3099,76.806 -27.4649,115.209 -42.7812,165.1236 -127.117,305.0766 -230.08,438.7246 -46.9787,54.1964 -94.4283,107.4418 -139.875,162.7734 -80.8211,109.9636 -187.0059,195.6271 -298.5704,272.1407 -1.388,1.0195 -5.5686,4.0551 -4.164,3.0586 10.5477,-7.4834 20.5725,-15.7561 31.5957,-22.5196 6.4724,-3.9713 -11.8031,9.5638 -17.8867,14.1074 -16.5395,12.3559 -31.1215,28.1772 -49.9746,36.5879 -111.9295,49.9314 -227.2669,91.8513 -340.8985,137.7774 -342.7996,138.5462 -464.4982,95.5934 -467.0156,-44.7774 -122.0338,127.0539 -239.8473,257.9653 -344.3203,400.2911 -23.6182,32.1746 -47.5983,61.8758 -71.6074,91.2851 129.1307,-5.9434 257.8923,8.6297 385.8769,24.0899 155.1174,26.6055 310.2533,51.2718 467.0117,65.6933 166.0445,17.698 332.6323,15.0346 499.1153,8.3653 130.838,-4.2438 261.4881,-11.1773 390.5547,-33.6622 126.6246,-23.3071 252.7767,-49.0783 378.6699,-76.041 179.6503,-37.7454 360.3611,-70.4981 541.1093,-102.5312 9.9782,-1.6601 19.8284,-3.9424 29.7969,-5.6504 9.5673,-365.541 323.979,-677.8533 855.7656,-675.2715 171.5166,0.8327 365.6056,34.4196 579.2989,109.5391 68.8638,24.207 143.6674,50.3643 207.6347,88.9433 5.2523,-17.7939 10.5295,-35.5876 14.1231,-53.7207 -0.6439,1.7817 -2.2573,7.212 -1.9317,5.3457 11.2353,-64.4025 26.6821,-128.0056 41.8282,-191.5644 60.0818,-229.1752 161.7059,-444.8311 255.7109,-661.4434 30.6549,-71.0879 63.3239,-141.2721 95.043,-211.8828 -26.3545,-17.9061 -52.7746,-35.7161 -79.1699,-53.5605 -9.2158,-6.2303 -18.5678,-12.2607 -27.7735,-18.5059 -3.1015,-2.1041 -7.2665,-3.2976 -9.1445,-6.541 -1.2593,-2.175 4.6616,1.8817 6.9922,2.8222 -59.0129,-31.7896 -118.7458,-60.7747 -181.9239,-83.8593 -131.6066,-54.1308 -264.1275,-106.2198 -398.3535,-153.5274 -65.4079,-23.9457 -130.8269,-47.994 -196.4648,-71.3926 z m 4188.9687,402.4004 c -56.2176,58.7555 -113.3689,116.6303 -172.1269,172.8243 40.2974,11.8395 80.3327,24.5298 120.5,36.7949 18.4622,-71.9324 34.7584,-138.1236 51.6269,-209.6192 z m -6571.8515,431.7774 c -2.8321,1.6623 -5.7396,3.1915 -8.5742,4.8496 3.1028,-1.3985 6.0982,-3.1494 9.2246,-4.4707 -0.2169,-0.126 -0.4335,-0.2528 -0.6504,-0.3789 z m 4495.9336,823.1758 c -13.624,58.5669 -26.1478,117.2866 -38.0625,176.2968 -17.8931,70.687 -37.329,141.0007 -58.5645,210.7618 -38.0463,124.9865 -83.5464,235.3015 -133.6523,334.4921 12.2862,-1.9755 24.6319,-3.5787 36.9062,-5.6289 220.978,-36.9092 441.6008,-79.0791 659.9453,-129.4336 81.4642,-18.7868 162.2507,-40.4273 243.0293,-61.9707 42.1229,-11.234 86.2914,-17.5675 125.6328,-36.3496 47.9819,-22.9066 88.978,-58.2302 133.4668,-87.3457 14.7515,-12.3765 29.4182,-24.8525 44.2539,-37.1308 -64.9764,-13.9532 -130.4028,-26.3708 -196.7324,-30.4493 -24.7192,-1.5198 -49.5486,1.4712 -74.2969,0.5391 -32.5825,-1.2271 -65.1198,-3.4542 -97.6796,-5.1816 -228.599,-38.653 -339.9268,-37.8643 -555.6133,-233.8067 -32.5632,-29.5821 -61.4712,-61.6501 -88.6328,-94.7929 z M 0,5274.3242 v 172.6426 c 23.799579,1.7553 47.26342,3.0644 71.8125,5.875 3.12669,-56.4761 11.470044,-115.3207 24.568359,-175.8984 -15.738941,-0.285 -31.477944,-0.3345 -47.216797,-0.502 C 32.238592,5276.2613 16.563944,5274.8617 0,5274.3242 Z M 0,7093.3008 V 7680 h 4918.334 c -247.9619,-109.7162 -408.2322,-276.9594 -478.8242,-461.3066 -114.9491,20.8338 -230.0012,41.2004 -344.3516,65.0078 -150.9992,32.3181 -302.34,63.209 -454.3594,90.3808 -195.9965,31.5113 -393.444,49.2341 -591.9726,54.1387 -239.1867,9.1618 -478.6456,10.0357 -717.1133,-14.4707 -170.3523,-16.6196 -340.3573,-37.3663 -508.4551,-70.1836 -140.9284,-17.1814 32.9563,3.9101 -81.1601,-9.6426 -6.1407,-0.7293 -12.2587,-1.6582 -18.4063,-2.3261 -5.6048,-0.6089 -20.105,3.0952 -16.8457,-1.5039 0.7303,-1.0307 3.4834,-0.6622 5.2695,-1.1036 -7.5791,0.3603 -15.1594,0.658 -22.7382,0.9864 -118.8198,5.5269 -237.7774,10.2004 -356.6622,2.7988 -187.2156,-10.365 -372.95029,-34.1055 -557.08589,-69.8652 C 515.43499,7213.9839 256.96241,7157.0566 0,7093.3008 Z" />
    </clipPath>
  </defs>
  <sodipodi:namedview
     id="namedview6315"
     pagecolor="#ffffff"
     bordercolor="#000000"
     borderopacity="0.25"
     inkscape:showpageshadow="2"
     inkscape:pageopacity="0.0"
     inkscape:pagecheckerboard="0"
     inkscape:deskcolor="#d1d1d1"
     showgrid="false"
     inkscape:zoom="2.7812867"
     inkscape:cx="234.42388"
     inkscape:cy="74.605758"
     inkscape:window-width="1920"
     inkscape:window-height="1111"
     inkscape:window-x="-9"
     inkscape:window-y="-9"
     inkscape:window-maximized="1"
     inkscape:current-layer="g6319" />
  <g
     inkscape:groupmode="layer"
     inkscape:label="Image"
     id="g6319">
    <path
       style="fill:#fdfdfd;fill-opacity:1;stroke-width:0.6419"
       d="M 6.2856299,41.13275 C -0.90427613,25.752651 -1.7499311,18.716134 2.8448219,12.502701 4.0964329,10.810164 6.2161379,7.8509855 7.5552739,5.9267715 10.709395,1.3945835 12.235843,0.51020846 17.080673,0.40811146 c 3.670589,-0.07734 4.207721,0.110115 6.68568,2.33312804 2.111928,1.894644 3.380634,3.794031 5.868468,8.7857245 3.13328,6.286754 3.271038,6.466422 10.731989,13.996096 7.107693,7.173171 7.898037,7.806117 13.266296,10.624189 3.139582,1.648116 8.856112,4.394174 12.703372,6.102354 6.48033,2.877245 7.53355,3.119567 14.31414,3.29322 7.41806,0.190002 17.55522,-0.68298 21.302212,-1.834491 2.88771,-0.887431 6.41038,-3.046056 16.67269,-10.216737 21.84947,-15.267056 34.93352,-21.496814 48.23901,-22.96823 9.34923,-1.0338926 34.50122,2.291184 43.79205,5.789291 20.23679,7.619383 31.78991,14.949941 45.86086,29.099082 9.36817,9.420234 12.88786,13.987259 15.9139,20.649384 l 1.8444,4.060601 7.69265,0.02907 c 8.60376,0.03255 11.70817,0.913218 14.70666,4.172037 4.06609,4.419113 4.47081,13.329094 0.83298,18.337544 -1.08125,1.48863 -6.65922,7.623346 -12.39555,13.632716 -14.93327,15.64416 -32.61141,30.91889 -36.6108,31.63343 -2.65305,0.474 -5.81391,-1.3838 -10.21182,-6.00201 -3.37164,-3.5405 -4.15161,-4.82285 -7.50408,-12.3372 -2.05778,-4.61229 -6.07628,-12.33926 -8.93003,-17.171 -6.28685,-10.644426 -8.36879,-16.544966 -8.28152,-23.471143 0.0696,-5.520423 0.7191,-6.549931 5.04599,-7.997982 3.07383,-1.028693 9.52823,-1.413572 9.51528,-0.567404 -0.005,0.311736 -1.62478,0.665238 -3.60002,0.785558 -4.30461,0.262194 -7.11768,1.00815 -8.41215,2.230706 -1.60116,1.512232 -1.57468,7.348509 0.0589,12.993659 1.85399,6.40654 3.19958,9.27137 8.53782,18.177476 2.23031,3.72091 5.58052,10.09246 7.44491,14.15899 2.71355,5.91866 4.16148,8.29487 7.25816,11.91117 2.49511,2.91384 4.52685,4.81257 5.7232,5.34866 2.06259,0.92422 5.18793,0.15084 7.89185,-1.95287 l 1.78134,-1.38591 -3.42584,-4.26937 c -2.35386,-2.93342 -4.73592,-6.99255 -7.61256,-12.97208 -2.30271,-4.7865 -6.13908,-12.46983 -8.52525,-17.074106 -2.3862,-4.60428 -4.76299,-9.57675 -5.28177,-11.04998 -2.18658,-6.20952 -1.05469,-10.775814 3.47354,-14.012787 5.9748,-4.271066 10.55502,-2.132927 18.8392,8.794557 l 2.73048,3.60169 -0.15984,-2.05636 c -0.0879,-1.131 -0.7222,-3.909124 -1.40956,-6.173619 -1.1301,-3.723064 -1.77059,-4.724287 -6.68978,-10.457508 -7.55932,-8.810283 -16.06192,-16.237325 -23.57718,-20.594699 -7.08791,-4.109617 -18.40925,-9.346678 -22.38567,-10.355242 -5.39175,-1.367546 -18.10421,-3.095163 -25.42896,-3.455784 -12.83247,-0.631775 -20.11481,2.53056 -45.43244,19.728937 -8.0973,5.500527 -15.3382,9.997067 -17.67726,10.977401 -11.10528,4.654426 -36.358582,5.689468 -47.303932,1.938796 C 58.796398,63.107468 45.446887,56.596925 38.422801,52.278459 25.593391,44.390832 8.8311869,24.056856 6.8548529,13.983835 c -0.325473,-1.658917 -0.838536,-3.023259 -1.140151,-3.031873 -1.048958,-0.02997 -3.854376,5.325745 -4.265019,8.142178 -0.443972,3.045039 1.585051,10.781519 5.113183,19.496044 l 3.1819165,5.283523 7.9659356,7.935239 c 9.433746,9.397393 10.588326,9.312681 31.894459,19.927921 11.961861,5.959697 15.831201,7.034798 26.004601,7.225402 23.655384,0.443224 43.053602,-6.407865 66.239032,-23.394338 6.41499,-4.699874 15.17488,-9.217502 22.85889,-11.788733 14.93085,-4.996191 45.4636,5.323415 62.3363,21.06872 6.64491,6.200925 4.89217,6.120943 -2.22944,-0.10173 -14.44089,-12.618063 -39.83333,-22.235663 -54.53912,-20.657186 -7.65991,0.822201 -18.47748,6.297434 -33.73626,17.075337 -10.53802,7.443443 -26.04862,14.694296 -36.36139,16.998133 -13.740992,3.069692 -30.861852,3.131352 -39.504652,0.14226 C 58.122248,77.422498 52.77193,75.014822 48.783535,72.954323 44.795139,70.893834 38.377242,67.727427 34.521527,65.917874 26.840506,62.313017 24.656852,60.436605 14.750123,50.783891 9.7362804,45.898613 7.6056199,43.956345 6.2856299,41.13275 Z M 278.18141,81.425704 c 0.27038,-0.61352 1.45065,-2.203451 2.62284,-3.53319 2.96843,-3.3674 6.11634,-3.832227 11.65215,-1.72059 4.4867,1.71145 5.19671,1.330678 2.61534,-1.402524 -2.11126,-2.235438 -7.12285,-3.396691 -13.35691,-3.094985 -2.63894,0.127725 -5.20152,0.325986 -5.69463,0.44059 -0.5894,0.136981 -0.60072,1.806485 -0.033,4.873027 0.9472,5.116652 1.44834,6.130182 2.19427,4.437672 z"
       id="path6641"
       sodipodi:nodetypes="sssssssssssssssscssssssssssssssssssscsssssscsssssssssssssscsssssssssssssssssssssss" />
  </g>
</svg>
